<svg width="20" height="24" viewBox="0 0 20 24" fill="none" xmlns="http://www.w3.org/2000/svg">
<path fill-rule="evenodd" clip-rule="evenodd" d="M17 16.375V10.5417C17 6.96 15.0983 3.96167 11.75 3.16833V2.375C11.75 1.40667 10.9683 0.625 9.99996 0.625C9.03162 0.625 8.24996 1.40667 8.24996 2.375V3.16833C4.91329 3.96167 2.99996 6.94833 2.99996 10.5417V16.375L0.666626 18.7083V19.875H19.3333V18.7083L17 16.375ZM9.99996 23.375C11.2833 23.375 12.3333 22.325 12.3333 21.0417H7.66663C7.66663 22.325 8.71663 23.375 9.99996 23.375ZM5.33329 17.5417H14.6666V10.5417C14.6666 7.64833 12.905 5.29167 9.99996 5.29167C7.09496 5.29167 5.33329 7.64833 5.33329 10.5417V17.5417Z" fill="#666666"/>
</svg>
