<svg width="16" height="16" viewBox="0 0 16 16" fill="none" xmlns="http://www.w3.org/2000/svg">
<path fill-rule="evenodd" clip-rule="evenodd" d="M12.1975 7.97992C11.9708 8.39325 11.5308 8.66659 11.0308 8.66659H6.06414L5.33081 9.99992H13.3308V11.3333H5.33081C4.31748 11.3333 3.67748 10.2466 4.16414 9.35325L5.06414 7.72659L2.66414 2.66659H1.33081V1.33325H3.51081L4.13748 2.66659H14.0041C14.5108 2.66659 14.8308 3.21325 14.5841 3.65325L12.1975 7.97992ZM12.8708 3.99992H4.77081L6.35081 7.33325H11.0308L12.8708 3.99992ZM5.33081 11.9999C4.59747 11.9999 4.00414 12.5999 4.00414 13.3333C4.00414 14.0666 4.59747 14.6666 5.33081 14.6666C6.06414 14.6666 6.66414 14.0666 6.66414 13.3333C6.66414 12.5999 6.06414 11.9999 5.33081 11.9999ZM10.6708 13.3333C10.6708 12.5999 11.2641 11.9999 11.9975 11.9999C12.7308 11.9999 13.3308 12.5999 13.3308 13.3333C13.3308 14.0666 12.7308 14.6666 11.9975 14.6666C11.2641 14.6666 10.6708 14.0666 10.6708 13.3333Z" fill="white"/>
</svg>
