<svg width="24" height="24" viewBox="0 0 24 24" fill="none" xmlns="http://www.w3.org/2000/svg">
<path fill-rule="evenodd" clip-rule="evenodd" d="M19.3456 11.965C18.949 12.6883 18.179 13.1666 17.304 13.1666H8.61231L7.32898 15.5H21.329V17.8333H7.32898C5.55565 17.8333 4.43565 15.9316 5.28731 14.3683L6.86231 11.5216L2.66231 2.66665H0.328979V0.333313H4.14398L5.24065 2.66665H22.5073C23.394 2.66665 23.954 3.62331 23.5223 4.39331L19.3456 11.965ZM20.524 4.99998H6.34898L9.11398 10.8333H17.304L20.524 4.99998ZM7.32898 19C6.04565 19 5.00731 20.05 5.00731 21.3333C5.00731 22.6166 6.04565 23.6666 7.32898 23.6666C8.61232 23.6666 9.66232 22.6166 9.66232 21.3333C9.66232 20.05 8.61232 19 7.32898 19ZM16.674 21.3333C16.674 20.05 17.7123 19 18.9956 19C20.279 19 21.329 20.05 21.329 21.3333C21.329 22.6166 20.279 23.6666 18.9956 23.6666C17.7123 23.6666 16.674 22.6166 16.674 21.3333Z" fill="#666666"/>
</svg>
